<svg width="40" height="53" viewBox="0 0 40 53" fill="none" xmlns="http://www.w3.org/2000/svg">
<path d="M18.1526 51.904C19.1729 52.9243 20.8271 52.9243 21.8474 51.904L38.4743 35.2771C39.4946 34.2568 39.4946 32.6025 38.4743 31.5822C37.454 30.5619 35.7998 30.5619 34.7795 31.5822L20 46.3617L5.22055 31.5822C4.20024 30.5619 2.54599 30.5619 1.52568 31.5822C0.505375 32.6025 0.505375 34.2568 1.52568 35.2771L18.1526 51.904ZM17.3873 46.9214V50.0566H22.6127V46.9214H17.3873Z" fill="#181818"/>
<path d="M18.5221 32.7233C19.3383 33.5396 20.6617 33.5396 21.4779 32.7233L34.7795 19.4218C35.5957 18.6056 35.5957 17.2822 34.7795 16.4659C33.9632 15.6497 32.6398 15.6497 31.8236 16.4659L20 28.2895L8.17644 16.4659C7.36019 15.6497 6.03679 15.6497 5.22054 16.4659C4.4043 17.2822 4.4043 18.6056 5.22054 19.4218L18.5221 32.7233ZM17.9099 28.1102V31.2454H22.0901V28.1102H17.9099Z" fill="#181818"/>
<path d="M18.8915 13.5427C19.5037 14.1549 20.4963 14.1549 21.1085 13.5427L31.0846 3.56653C31.6968 2.95435 31.6968 1.9618 31.0846 1.34962C30.4724 0.737432 29.4799 0.737432 28.8677 1.34962L20 10.2173L11.1323 1.34962C10.5201 0.737432 9.52759 0.737432 8.91541 1.34962C8.30322 1.9618 8.30322 2.95435 8.91541 3.56653L18.8915 13.5427ZM18.4324 9.29901V12.4342H21.5676V9.29901H18.4324Z" fill="#181818"/>
</svg>
