<svg width="20" height="20" viewBox="0 0 20 20" fill="none" xmlns="http://www.w3.org/2000/svg">
<path d="M12.4622 12.3527L9.79503 10.3523V6.27751C9.79503 5.8678 9.46387 5.53662 9.05413 5.53662C8.64444 5.53662 8.31323 5.8678 8.31323 6.27751V10.7228C8.31323 10.9562 8.42291 11.1762 8.60963 11.3155L11.5731 13.5382C11.7064 13.6382 11.8621 13.6864 12.0169 13.6864C12.2429 13.6864 12.4651 13.5849 12.6104 13.3893C12.8564 13.0625 12.7897 12.5979 12.4622 12.3527Z" fill="white"/>
<path d="M9.85224 0.300537C4.57791 0.300537 0.287476 4.59097 0.287476 9.8653C0.287476 15.1396 4.57791 19.4301 9.85224 19.4301C15.1266 19.4301 19.417 15.1396 19.417 9.8653C19.417 4.59097 15.1266 0.300537 9.85224 0.300537ZM9.85224 17.9483C5.39585 17.9483 1.76923 14.3217 1.76923 9.8653C1.76923 5.40891 5.39585 1.78229 9.85224 1.78229C14.3094 1.78229 17.9353 5.40891 17.9353 9.8653C17.9353 14.3217 14.3086 17.9483 9.85224 17.9483Z" fill="white"/>
</svg>
