<svg width="25" height="25" viewBox="0 0 25 25" fill="none" xmlns="http://www.w3.org/2000/svg">
<path d="M16.3825 14.2455L13.041 11.7394V6.63432C13.041 6.12102 12.6262 5.70612 12.1128 5.70612C11.5996 5.70612 11.1846 6.12102 11.1846 6.63432V12.2035C11.1846 12.4959 11.322 12.7716 11.556 12.946L15.2687 15.7306C15.4357 15.856 15.6307 15.9163 15.8247 15.9163C16.1077 15.9163 16.3862 15.7891 16.5681 15.5441C16.8764 15.1347 16.7928 14.5527 16.3825 14.2455Z" fill="black"/>
<path d="M12.1128 0.146332C5.50496 0.146332 0.129822 5.52147 0.129822 12.1293C0.129822 18.7371 5.50496 24.1122 12.1128 24.1122C18.7205 24.1122 24.0957 18.7371 24.0957 12.1293C24.0957 5.52147 18.7205 0.146332 12.1128 0.146332ZM12.1128 22.2558C6.52969 22.2558 1.98619 17.7123 1.98619 12.1293C1.98619 6.5462 6.52969 2.0027 12.1128 2.0027C17.6967 2.0027 22.2393 6.5462 22.2393 12.1293C22.2393 17.7123 17.6958 22.2558 12.1128 22.2558Z" fill="black"/>
</svg>
