<svg width="152" height="35" viewBox="0 0 152 35" fill="none" xmlns="http://www.w3.org/2000/svg">
<g clip-path="url(#clip0_7_4)">
<path d="M22.7129 18.7788C22.7454 16.2569 24.0675 13.9274 26.2161 12.6065C24.8545 10.662 22.6557 9.47333 20.283 9.3991C17.7868 9.13707 15.3667 10.8928 14.0947 10.8928C12.798 10.8928 10.8395 9.42511 8.73048 9.4685C5.95559 9.55814 3.43135 11.0976 2.08129 13.5236C-0.793679 18.5012 1.35079 25.8166 4.10477 29.84C5.48266 31.8102 7.093 34.011 9.2001 33.933C11.262 33.8474 12.0321 32.6182 14.521 32.6182C16.9869 32.6182 17.7093 33.933 19.8592 33.8833C22.0717 33.8474 23.4657 31.9044 24.7953 29.9155C25.7853 28.5116 26.5471 26.9601 27.0525 25.3184C24.4247 24.2069 22.716 21.632 22.7129 18.7788Z" fill="white"/>
<path d="M18.6516 6.75293C19.858 5.30473 20.4524 3.4433 20.3084 1.56396C18.4653 1.75755 16.7629 2.63841 15.5403 4.03104C14.3328 5.40507 13.7212 7.20266 13.84 9.0279C15.7078 9.04713 17.4812 8.20863 18.6516 6.75293Z" fill="white"/>
<path fill-rule="evenodd" clip-rule="evenodd" d="M41.739 22.999H48.7755L50.4637 27.9885H53.495L46.8301 9.52856H43.7337L37.0689 27.9885H40.0492L41.739 22.999ZM48.0453 20.6966H42.4678L45.2189 12.599H45.2958L48.0453 20.6966Z" fill="white"/>
<path fill-rule="evenodd" clip-rule="evenodd" d="M62.2729 28.1294C65.6511 28.1294 67.8896 25.4422 67.8896 21.2599C67.8896 17.0891 65.6379 14.389 62.2222 14.389C60.4645 14.3322 58.818 15.2464 57.9367 16.7683H57.8858V14.5298H55.2119V32.4408H57.9744V25.7747H58.0383C58.8821 27.3061 60.5268 28.2207 62.2729 28.1294ZM61.4934 16.7437C63.6419 16.7437 65.05 18.535 65.05 21.2599C65.05 24.0094 63.6419 25.7878 61.4934 25.7878C59.3826 25.7878 57.9628 23.9717 57.9628 21.2599C57.9628 18.5728 59.3826 16.7437 61.4934 16.7437Z" fill="white"/>
<path fill-rule="evenodd" clip-rule="evenodd" d="M77.0873 28.1293C80.4655 28.1293 82.704 25.4422 82.704 21.2599C82.704 17.0891 80.4524 14.389 77.0365 14.389C75.2789 14.3322 73.6324 15.2464 72.751 16.7683H72.7002V14.5298H70.0262V32.4408H72.7888V25.7746H72.8527C73.6965 27.3061 75.3413 28.2206 77.0873 28.1293ZM76.3078 16.7437C78.4563 16.7437 79.8644 18.535 79.8644 21.2599C79.8644 24.0094 78.4564 25.7878 76.3078 25.7878C74.197 25.7878 72.7773 23.9717 72.7773 21.2599C72.7773 18.5728 74.197 16.7437 76.3078 16.7437Z" fill="white"/>
<path d="M92.4926 22.845C92.6974 24.6756 94.4757 25.8775 96.9059 25.8775C99.2344 25.8775 100.91 24.6756 100.91 23.0249C100.91 21.5921 99.8993 20.7342 97.5068 20.1463L95.1144 19.5698C91.7247 18.7512 90.151 17.1659 90.151 14.5935C90.151 11.4084 92.9267 9.2207 96.868 9.2207C100.769 9.2207 103.443 11.4084 103.533 14.5935H100.744C100.577 12.7512 99.0543 11.6393 96.8288 11.6393C94.6034 11.6393 93.0806 12.7643 93.0806 14.4018C93.0806 15.707 94.0532 16.4749 96.4325 17.0627L98.4664 17.5622C102.254 18.4578 103.828 19.9793 103.828 22.6793C103.828 26.133 101.077 28.296 96.7011 28.296C92.6073 28.296 89.8432 26.1838 89.6647 22.8449L92.4926 22.845Z" fill="white"/>
<path d="M109.79 11.3446V14.5297H112.349V16.7174H109.79V24.137C109.79 25.2896 110.302 25.8268 111.427 25.8268C111.731 25.8214 112.034 25.8002 112.336 25.7628V27.9376C111.83 28.032 111.316 28.0748 110.802 28.0653C108.077 28.0653 107.014 27.0418 107.014 24.4317V16.7174H105.057V14.5297H107.014V11.3446H109.79Z" fill="white"/>
<path fill-rule="evenodd" clip-rule="evenodd" d="M120.215 14.3643C116.327 14.3643 113.833 17.0253 113.833 21.2599C113.833 25.5061 116.302 28.1555 120.215 28.1555C124.131 28.1555 126.6 25.5061 126.6 21.2599C126.6 17.0252 124.118 14.3643 120.215 14.3643ZM120.215 16.6406C122.454 16.6406 123.785 18.355 123.785 21.2599C123.785 24.1763 122.454 25.8777 120.215 25.8777C117.977 25.8777 116.647 24.1763 116.647 21.2599C116.647 18.3681 117.977 16.6406 120.215 16.6406Z" fill="white"/>
<path d="M128.877 14.5298H131.512V16.8206H131.576C131.944 15.3459 133.295 14.3309 134.813 14.389C135.132 14.3879 135.449 14.4224 135.76 14.4921V17.076C135.358 16.9533 134.938 16.8968 134.518 16.9092C133.706 16.8761 132.92 17.1998 132.367 17.7952C131.813 18.3905 131.548 19.198 131.639 20.0056V27.9886H128.877V14.5298Z" fill="white"/>
<path fill-rule="evenodd" clip-rule="evenodd" d="M142.701 28.1555C145.746 28.1555 148.126 26.4788 148.497 24.0355H145.873C145.37 25.2843 144.106 26.0542 142.766 25.9285C141.761 25.9655 140.788 25.5689 140.095 24.8395C139.402 24.1102 139.056 23.1183 139.144 22.1164V21.9494H148.651V21.0029C148.651 16.9222 146.31 14.3643 142.586 14.3643C138.8 14.3643 136.356 17.1022 136.356 21.3238C136.356 25.5322 138.786 28.1555 142.701 28.1555ZM145.886 20.0187H139.157C139.155 19.11 139.517 18.2381 140.16 17.5966C140.803 16.9551 141.676 16.5974 142.586 16.6028C143.487 16.5835 144.356 16.9411 144.982 17.5895C145.609 18.2378 145.937 19.1183 145.886 20.0187Z" fill="white"/>
</g>
<defs>
<clipPath id="clip0_7_4">
<rect width="151.033" height="34.4878" fill="white" transform="translate(0.16333 0.493164)"/>
</clipPath>
</defs>
</svg>
