<svg width="148" height="34" viewBox="0 0 148 34" fill="none" xmlns="http://www.w3.org/2000/svg">
<path fill-rule="evenodd" clip-rule="evenodd" d="M123.833 24.9066H126.208V9.41334H123.833V24.9066ZM145.219 14.9942L142.498 21.7115H142.416L139.591 14.9942H137.034L141.27 24.3823L138.855 29.605H141.332L147.86 14.9942H145.219ZM131.754 23.1467C130.976 23.1467 129.891 22.7687 129.891 21.8317C129.891 20.6358 131.243 20.1772 132.409 20.1772C133.453 20.1772 133.943 20.3965 134.578 20.6953C134.394 22.1305 133.125 23.1467 131.754 23.1467ZM132.041 14.6558C130.322 14.6558 128.542 15.3933 127.805 17.0279L129.913 17.8844C130.363 17.0279 131.202 16.7479 132.082 16.7479C133.31 16.7479 134.558 17.4655 134.578 18.742V18.9007C134.148 18.6614 133.228 18.3033 132.102 18.3033C129.83 18.3033 127.518 19.5191 127.518 21.7909C127.518 23.8643 129.38 25.2003 131.467 25.2003C133.064 25.2003 133.943 24.5026 134.497 23.6846H134.578V24.8806H136.87V18.9415C136.87 16.1901 134.763 14.6558 132.041 14.6558ZM117.368 16.8805H113.99V11.5698H117.368C119.143 11.5698 120.15 13.0013 120.15 14.2245C120.15 15.4255 119.143 16.8805 117.368 16.8805ZM117.306 9.41334H111.617V24.9066H113.99V19.037H117.306C119.937 19.037 122.524 17.1804 122.524 14.2245C122.524 11.2687 119.937 9.41334 117.306 9.41334ZM86.2835 23.1492C84.6434 23.1492 83.2704 21.8119 83.2704 19.9752C83.2704 18.1186 84.6434 16.7602 86.2835 16.7602C87.9033 16.7602 89.1732 18.1186 89.1732 19.9752C89.1732 21.8119 87.9033 23.1492 86.2835 23.1492ZM89.009 15.8618H88.9276C88.3945 15.2433 87.3702 14.6844 86.0787 14.6844C83.3722 14.6844 80.8923 16.9995 80.8923 19.9752C80.8923 22.9298 83.3722 25.2264 86.0787 25.2264C87.3702 25.2264 88.3945 24.6674 88.9276 24.0279H89.009V24.7864C89.009 26.804 87.9033 27.8823 86.1193 27.8823C84.6637 27.8823 83.7616 26.8635 83.3926 26.0047L81.3224 26.8437C81.9166 28.2417 83.4956 29.9583 86.1193 29.9583C88.9073 29.9583 91.265 28.3607 91.265 24.4679V15.0028H89.009V15.8618ZM92.9052 24.9066H95.2834V9.4121H92.9052V24.9066ZM98.7876 19.7955C98.7265 17.7592 100.407 16.7206 101.616 16.7206C102.561 16.7206 103.359 17.1791 103.626 17.8385L98.7876 19.7955ZM106.168 18.0381C105.718 16.8607 104.343 14.6844 101.535 14.6844C98.7468 14.6844 96.4311 16.8197 96.4311 19.9553C96.4311 22.91 98.7265 25.2264 101.8 25.2264C104.281 25.2264 105.718 23.7491 106.311 22.8901L104.466 21.6917C103.851 22.5704 103.011 23.1492 101.8 23.1492C100.592 23.1492 99.7304 22.61 99.1769 21.5529L106.413 18.6379L106.168 18.0381ZM48.5169 16.3017V18.5375H54.01C53.8458 19.7955 53.4156 20.7138 52.7604 21.3533C51.96 22.1316 50.7093 22.9893 48.5169 22.9893C45.1348 22.9893 42.4894 20.3346 42.4894 17.0403C42.4894 13.7449 45.1348 11.0902 48.5169 11.0902C50.3416 11.0902 51.6738 11.7892 52.6573 12.6877L54.2772 11.11C52.903 9.83225 51.0795 8.85315 48.5169 8.85315C43.884 8.85315 39.9891 12.5279 39.9891 17.0403C39.9891 21.5529 43.884 25.2264 48.5169 25.2264C51.0172 25.2264 52.903 24.4282 54.3789 22.9298C55.8956 21.4525 56.3677 19.3766 56.3677 17.6985C56.3677 17.1792 56.327 16.7008 56.2443 16.3017H48.5169ZM62.614 23.1492C60.9738 23.1492 59.5589 21.8317 59.5589 19.9553C59.5589 18.0579 60.9738 16.7602 62.614 16.7602C64.2529 16.7602 65.6678 18.0579 65.6678 19.9553C65.6678 21.8317 64.2529 23.1492 62.614 23.1492ZM62.614 14.6844C59.62 14.6844 57.1808 16.9003 57.1808 19.9553C57.1808 22.9893 59.62 25.2264 62.614 25.2264C65.6067 25.2264 68.0459 22.9893 68.0459 19.9553C68.0459 16.9003 65.6067 14.6844 62.614 14.6844ZM74.4641 23.1492C72.8238 23.1492 71.409 21.8317 71.409 19.9553C71.409 18.0579 72.8238 16.7602 74.4641 16.7602C76.1042 16.7602 77.5178 18.0579 77.5178 19.9553C77.5178 21.8317 76.1042 23.1492 74.4641 23.1492ZM74.4641 14.6844C71.4713 14.6844 69.0321 16.9003 69.0321 19.9553C69.0321 22.9893 71.4713 25.2264 74.4641 25.2264C77.4567 25.2264 79.896 22.9893 79.896 19.9553C79.896 16.9003 77.4567 14.6844 74.4641 14.6844Z" fill="white"/>
<path opacity="0.8" fill-rule="evenodd" clip-rule="evenodd" d="M0.71117 0.740114C0.341306 1.14378 0.123962 1.76893 0.123962 2.58018V31.5416C0.123962 32.3528 0.341306 32.9779 0.71117 33.3816L0.805228 33.4759L16.5391 17.2522V16.8695L0.805228 0.645752L0.71117 0.740114Z" fill="white"/>
<path fill-rule="evenodd" clip-rule="evenodd" d="M21.7776 22.9233L16.5391 17.8266V17.4661L21.7801 12.3707L28.1071 15.8648C29.8798 16.8451 29.8798 18.4477 28.1071 19.4267L21.8983 22.8566L21.7776 22.9233Z" fill="white"/>
<path opacity="0.4" fill-rule="evenodd" clip-rule="evenodd" d="M22.4016 22.4516L16.763 17.0607L0.123962 32.9688C0.739924 33.591 1.7554 33.6677 2.89915 33.0468L22.4016 22.4516Z" fill="white"/>
<path opacity="0.6" fill-rule="evenodd" clip-rule="evenodd" d="M22.4016 11.67L2.89915 1.0747C1.7554 0.453855 0.739924 0.530503 0.123962 1.15262L16.763 17.0608L22.4016 11.67Z" fill="white"/>
</svg>
