<svg width="160" height="56" viewBox="0 0 160 56" fill="none" xmlns="http://www.w3.org/2000/svg">
<path d="M15.4739 0C6.9279 0 0 6.92072 0 15.4579V31.994C0 40.5311 6.9279 47.4518 15.4739 47.4518H147.685C147.879 47.4884 148.089 47.5096 148.316 47.5143C152.975 47.6113 155.449 50.5695 156.819 52.2085C157.213 52.6801 157.516 53.0425 157.754 53.196C157.822 53.2402 157.892 53.2864 157.963 53.3334C159.001 54.0176 160.292 54.8684 159.941 51.9473C159.641 49.4498 156.774 44.1219 155.379 41.7701C156.879 39.46 157.754 38.1488 157.754 38.1488C157.754 38.1488 162.254 28.6584 158.441 29.9696C156.138 34.5716 150.621 36.3157 148.503 36.2268V15.4578C148.503 6.92071 141.576 0 133.03 0H15.4739Z" fill="#FFB702"/>
<mask id="mask0_55_73" style="mask-type:alpha" maskUnits="userSpaceOnUse" x="0" y="0" width="160" height="54">
<path d="M15.4739 0C6.9279 0 0 6.92072 0 15.4579V31.994C0 40.5311 6.9279 47.4518 15.4739 47.4518H147.685C147.879 47.4884 148.089 47.5096 148.316 47.5143C152.975 47.6113 155.449 50.5695 156.819 52.2085C157.213 52.6801 157.516 53.0425 157.754 53.196C157.822 53.2402 157.892 53.2864 157.963 53.3334C159.001 54.0176 160.292 54.8684 159.941 51.9473C159.641 49.4498 156.774 44.1219 155.379 41.7701C156.879 39.46 157.754 38.1488 157.754 38.1488C157.754 38.1488 162.254 28.6584 158.441 29.9696C156.138 34.5716 150.621 36.3157 148.503 36.2268V15.4578C148.503 6.92071 141.576 0 133.03 0H15.4739Z" fill="#FFB702"/>
</mask>
<g mask="url(#mask0_55_73)">
<mask id="mask1_55_73" style="mask-type:alpha" maskUnits="userSpaceOnUse" x="0" y="2" width="160" height="53">
<path fill-rule="evenodd" clip-rule="evenodd" d="M148.503 2H0V48.5731H147.685C147.879 48.6089 148.089 48.6298 148.316 48.6344C152.975 48.7296 155.449 51.633 156.819 53.2416C157.213 53.7046 157.516 54.0603 157.754 54.2109C157.822 54.2542 157.892 54.2996 157.963 54.3458C159.001 55.0172 160.292 55.8523 159.941 52.9853C159.641 50.5341 156.774 45.3048 155.379 42.9966C156.879 40.7292 157.754 39.4423 157.754 39.4423C157.754 39.4423 162.254 30.1277 158.441 31.4146C156.138 35.9315 150.62 37.6432 148.503 37.556V2Z" fill="#FFB702"/>
</mask>
<g mask="url(#mask1_55_73)">
<path d="M15.2938 35.0584C14.4831 40.1927 17.3205 46.3178 18.8405 48.7386L21.5427 49.5252L24.9205 49.1874L28.2984 49.5252L31.3384 48.7386L30.1562 47.0497L29.1428 41.6452L30.6628 37.7607L33.3651 35.9029L36.574 35.0584H39.2763L44.5119 32.525C45.3564 31.7369 46.7751 30.2281 45.6942 30.4983C44.6133 30.7686 41.9786 28.6968 40.7963 27.6272L44.5119 27.965L47.0453 26.4449L45.6942 23.4049C44.2867 21.716 40.2559 18.1017 35.3918 17.1559C30.5277 16.2101 24.4702 18.4507 22.0494 19.6893C24.4139 19.3515 13.0982 23.4049 9.72034 35.0584C11.2404 34.5517 14.956 34.3828 15.2938 35.0584Z" fill="white"/>
<path d="M47.7206 16.9292C46.5046 17.0643 45.525 18.1114 45.1873 18.6181V18.787L45.8628 19.6314L48.3962 20.307L50.4229 20.9825L51.4362 21.9959L51.9429 23.1781L52.9563 24.867L54.3074 25.8804L55.3207 22.3337L54.8141 19.6314C54.2511 19.1247 53.0238 17.9763 52.6185 17.4358C52.1118 16.7603 49.2406 16.7603 47.7206 16.9292Z" fill="white"/>
</g>
<mask id="mask2_55_73" style="mask-type:alpha" maskUnits="userSpaceOnUse" x="0" y="2" width="168" height="54">
<path fill-rule="evenodd" clip-rule="evenodd" d="M149 2H0V49H149V2ZM154.881 36.5663C157.018 36.7937 163.34 34.9291 165.932 29.7446C170.094 28.312 165.182 38.6811 165.182 38.6811C165.182 38.6811 164.227 40.1137 162.59 42.6377C164.113 45.2073 167.242 51.0285 167.569 53.7572C167.952 56.9488 166.544 56.0192 165.411 55.2717C165.333 55.2203 165.256 55.1698 165.182 55.1216C164.923 54.9539 164.592 54.5579 164.162 54.0426C162.666 52.2519 159.966 49.0197 154.881 48.9138C149.642 48.8046 152.698 40.6367 154.881 36.5663Z" fill="#FFB702"/>
</mask>
<g mask="url(#mask2_55_73)">
<path fill-rule="evenodd" clip-rule="evenodd" d="M40.2976 4.92248C39.078 5.41668 25.5644 13.4323 25.1795 13.8898C24.6119 14.5648 24.6376 15.6263 25.2505 16.8414L25.7503 17.8317L24.9443 18.1156C20.2753 19.7602 15.1065 23.9503 12.2068 28.4417C10.4108 31.2233 8.53955 35.4411 8.92737 35.8333C9.00993 35.9165 9.66455 35.7976 10.3821 35.569C11.8724 35.0938 13.0929 35.0408 14.1185 35.4062C14.8275 35.6589 14.8287 35.6636 14.8777 37.9453C14.9392 40.8032 15.8138 44.3904 17.0843 46.9959C17.9317 48.7336 18.0836 48.9082 18.8098 48.9788C19.7324 49.0688 19.7706 48.966 19.1471 48.0724C16.6818 44.5408 15.3655 38.9225 15.9098 34.2561C16.9025 25.7448 21.9275 19.5724 29.3166 17.7879C35.9399 16.1884 42.0321 18.7508 45.5465 24.6142C45.9968 25.3655 46.3047 26.1396 46.2305 26.3346C46.0379 26.8422 43.5772 27.294 41.6161 27.1818C39.5312 27.0626 39.4563 27.3411 41.1327 28.975C41.9045 29.7271 42.7761 30.2886 43.603 30.5663L44.8808 30.9954L44.2333 31.6788C43.2301 32.7378 41.1526 33.6402 39.0342 33.9375C34.9588 34.5097 33.6253 34.8979 32.035 35.976C30.7452 36.8502 30.375 37.2765 29.6506 38.7207C28.8468 40.3239 28.7931 40.58 28.7931 42.8211C28.7931 45.0902 28.8404 45.3084 29.7253 47.1185C30.6237 48.9565 30.6883 49.0252 31.5206 49.0252H32.3837L31.5091 47.9919C30.2606 46.5173 29.6464 44.6889 29.6692 42.5132C29.6907 40.4586 29.9568 39.5869 31.0321 38.0498C31.818 36.9264 33.6446 35.806 35.1628 35.5159C35.8819 35.3785 35.9338 35.4399 37.5701 38.3639C38.4898 40.0075 39.5192 41.6853 39.8581 42.0923C40.9706 43.4292 41.3714 43.2828 49.4337 38.5909C53.4423 36.2584 56.9147 34.128 57.1507 33.857C57.8984 32.9974 57.6732 32.0028 56.1222 29.3141L54.665 26.7884L55.1726 25.4589C55.8917 23.5755 55.9037 20.9918 55.1996 19.6472C54.1584 17.6591 52.193 16.3474 49.9462 16.1413L48.5175 16.0103L45.7601 11.1545C42.318 5.09366 41.6778 4.36339 40.2976 4.92248ZM41.7112 6.1083C42.1975 6.66765 47.5348 16.0043 47.5348 16.2956C47.5348 16.4839 46.5161 16.8996 46.4201 16.7502C46.4017 16.7217 45.4597 15.0561 44.3272 13.0488C43.1943 11.0416 42.1115 9.39748 41.9206 9.395C41.7298 9.39253 38.614 11.1134 34.9965 13.2195C31.379 15.3253 28.0344 17.1557 27.564 17.287C26.7259 17.5211 26.6955 17.5035 26.0659 16.417C25.5823 15.5827 25.4784 15.1826 25.6464 14.8017C25.8829 14.2661 40.2476 5.70576 40.9434 5.68595C41.1582 5.67975 41.5037 5.87 41.7112 6.1083ZM36.0203 10.2576C36.0203 10.4619 36.1857 10.6291 36.3878 10.6291C36.5899 10.6291 36.7553 10.4619 36.7553 10.2576C36.7553 10.0532 36.5899 9.88598 36.3878 9.88598C36.1857 9.88598 36.0203 10.0532 36.0203 10.2576ZM33.3254 11.4984C31.6225 12.5115 31.1252 13.0667 31.7362 13.2725C32.1279 13.4045 35.8167 11.126 35.7141 10.8152C35.5428 10.2952 35.1665 10.403 33.3254 11.4984ZM115.887 11.1543C113.124 11.9921 111.653 15.1665 112.457 18.5556C113.238 21.8489 116.917 23.4499 120.141 21.9C123.695 20.1925 123.817 13.6505 120.333 11.6705C119.222 11.0388 117.086 10.7909 115.887 11.1543ZM82.9454 11.3567C82.8672 11.4845 81.9821 13.9926 80.9784 16.9303L79.1534 22.2718H80.3583H81.5634L81.9882 20.9094L82.4128 19.5469H84.2833H86.1538L86.5783 20.9094L87.0031 22.2718H88.2156C88.8825 22.2718 89.428 22.1856 89.428 22.0803C89.428 21.9748 88.6012 19.5046 87.5906 16.5907C86.58 13.677 85.7532 11.2551 85.7532 11.2088C85.7532 11.0064 83.073 11.1478 82.9454 11.3567ZM92.2714 14.7722C92.0681 19.1952 91.8591 20.0089 90.8754 20.2078C90.2402 20.3364 90.163 20.4531 90.163 21.2854C90.163 22.4063 90.5582 22.6312 91.8909 22.2683C93.6556 21.7878 94.1826 20.4555 94.4616 15.7692L94.6199 13.1063H96.1888H97.7577V17.689V22.2718H98.9214H100.085L100.034 16.7601L99.9824 11.2484L96.2108 11.1803L92.4395 11.1124L92.2714 14.7722ZM103.384 11.3103C103.057 18.889 102.78 20.2903 101.611 20.2898C101.143 20.2898 101.065 20.4233 101.065 21.2188C101.065 21.7298 101.207 22.2393 101.381 22.3513C101.884 22.6756 103.211 22.2758 103.945 21.5784C104.862 20.7082 105.109 19.7005 105.279 16.1408L105.424 13.1063H106.98H108.537V17.689V22.2718H109.762H110.987V16.6982V11.1246H107.19C105.101 11.1246 103.389 11.208 103.384 11.3103ZM118.969 13.3889C119.853 13.8254 120.384 15.0558 120.393 16.688C120.403 18.5801 119.848 19.6993 118.648 20.2058C116.231 21.2272 114.318 19.1203 114.752 15.9151C115.085 13.4588 116.903 12.3696 118.969 13.3889ZM84.4523 17.7648C83.7906 17.8065 83.196 17.7869 83.1311 17.7212C83.013 17.6021 83.585 15.4207 84.0674 14.1502C84.3078 13.5173 84.3617 13.6012 84.9891 15.5835L85.6555 17.689L84.4523 17.7648ZM65.6641 17.8129V18.8038H70.6863H75.7086V17.8129V16.822H70.6863H65.6641V17.8129ZM51.8221 17.5332C53.6924 18.397 54.8791 20.1444 54.883 22.0409C54.885 22.9057 54.1811 25.2444 53.9192 25.2444C53.7208 25.2444 52.6796 23.6464 52.6796 23.3419C52.6796 23.2649 52.845 23.3407 53.0471 23.5104C53.5559 23.9372 53.5064 23.5951 52.9207 22.6372C52.0426 21.2004 49.6687 19.7243 46.9522 18.9256C45.6099 18.5313 45.5602 18.4892 46.0365 18.152C47.658 17.0034 50.1079 16.7415 51.8221 17.5332ZM20.8687 21.4905C17.8002 24.5931 15.8559 28.6146 15.3174 32.9721L15.155 34.286L13.1544 34.2947C12.0282 34.2997 10.913 34.4389 10.6026 34.6133C9.8821 35.0178 9.90586 34.7839 10.7876 32.797C12.0525 29.9465 14.1336 26.9928 16.6328 24.501C18.5101 22.6297 21.7501 20.0423 22.2166 20.0423C22.2629 20.0423 21.6563 20.6941 20.8687 21.4905ZM123.887 20.2281C123.721 20.4996 123.237 23.257 123.237 23.9275C123.237 24.3972 123.367 24.5012 123.957 24.5012C124.354 24.5012 124.753 24.3771 124.846 24.2255C125.01 23.9568 125.919 20.5977 125.927 20.2281C125.93 20.1261 125.497 20.0423 124.966 20.0423C124.435 20.0423 123.95 20.1261 123.887 20.2281ZM29.4497 20.95C28.9648 21.8665 28.6042 24.5347 28.759 26.0596C28.969 28.1246 30.1018 30.4259 31.4642 31.5547C32.805 32.6657 33.0985 32.6727 32.1419 31.5711C31.0862 30.355 30.2447 28.8041 29.7939 27.243C29.3576 25.7312 29.2823 22.8269 29.6464 21.5435C29.9181 20.5851 29.812 20.265 29.4497 20.95ZM50.7883 21.978C50.987 22.2076 52.4424 24.6652 54.0224 27.4392C56.2474 31.3449 56.8481 32.5879 56.6862 32.9499C56.4767 33.418 41.8814 42.0891 41.3033 42.0891C41.1342 42.0891 40.8241 41.8939 40.6139 41.6556C39.9617 40.9157 37.0326 35.6983 37.1837 35.5454C37.6419 35.0824 38.4028 35.4979 39.0827 36.5819C39.4869 37.2267 39.8806 37.7541 39.9575 37.7541C40.2902 37.7541 53.6596 29.8167 53.6596 29.6191C53.6596 29.4989 52.6122 27.5657 51.3322 25.3237C50.0521 23.0813 49.0048 21.2044 49.0048 21.1529C49.0048 20.9262 50.4617 21.6005 50.7883 21.978ZM36.0264 22.2656C35.0141 23.2892 35.1663 24.5817 36.3946 25.3955C37.5334 26.15 39.2052 25.1693 39.2052 23.7469C39.2052 22.1318 37.1198 21.16 36.0264 22.2656ZM37.5005 22.9035C37.7595 23.2191 37.7507 23.3533 37.4515 23.6558C37.0005 24.1118 36.2653 23.8644 36.2653 23.2567C36.2653 22.8623 36.5441 22.601 37.0316 22.5391C37.1161 22.5284 37.3271 22.6924 37.5005 22.9035ZM80.6069 27.7052C78.5074 28.351 77.3444 29.6954 76.9316 31.9545C76.2692 35.5779 78.1551 38.5723 81.3814 39.0194C85.4274 39.58 88.2776 35.8811 87.2231 31.4378C86.5399 28.5571 83.4692 26.8248 80.6069 27.7052ZM91.8267 27.7186C90.6363 28.0815 89.7154 28.947 89.0444 30.3335C88.4562 31.5498 88.3976 31.9028 88.4971 33.6388C88.6485 36.2863 89.3844 37.5774 91.2743 38.5123C92.4422 39.09 92.8368 39.1648 94.1083 39.0481C96.3564 38.842 97.7295 37.763 98.3557 35.7104C98.5164 35.183 98.4586 35.153 97.2841 35.153C96.372 35.153 96.0428 35.2469 96.0428 35.5065C96.0428 35.7012 95.762 36.0835 95.4188 36.3565C93.2852 38.0536 90.898 36.4699 90.898 33.3578C90.898 32.5285 91.067 31.5235 91.2843 31.0603C91.6704 30.2379 92.8755 29.4548 93.7524 29.4566C94.4305 29.4578 95.7319 30.3414 95.9149 30.9248C96.0494 31.3531 96.2772 31.4373 97.3008 31.4373C98.4559 31.4373 98.5164 31.4056 98.3628 30.8799C97.6009 28.2715 94.6676 26.8528 91.8267 27.7186ZM102.68 27.7939C100.785 28.4055 99.2276 30.8898 99.2276 33.3009C99.2276 34.3997 99.8056 36.2162 100.444 37.1224C101.512 38.6394 104.048 39.4239 106.088 38.8688C107.577 38.4633 108.409 37.815 109.209 36.4375C109.796 35.4265 109.882 35.0213 109.873 33.2952C109.865 31.7492 109.744 31.0853 109.325 30.275C108.134 27.9755 105.344 26.9341 102.68 27.7939ZM113.732 28.001C111.851 28.9425 110.985 30.6444 110.99 33.394C110.993 35.5979 111.782 37.3357 113.217 38.2956C114.129 38.9057 114.49 38.9926 116.114 38.9926C117.624 38.9926 118.138 38.8866 118.876 38.4229C119.775 37.8574 120.577 36.7815 120.898 35.7104C121.055 35.186 120.995 35.153 119.884 35.1545C118.837 35.156 118.659 35.2375 118.296 35.8816C117.36 37.5452 114.684 37.3637 113.847 35.5796C113.32 34.458 113.316 32.1425 113.838 31.0303C114.264 30.1214 115.256 29.4551 116.181 29.4566C116.953 29.4578 118.258 30.301 118.454 30.9248C118.587 31.3504 118.817 31.4373 119.806 31.4373H120.997L120.777 30.66C120.027 28.0166 116.421 26.6554 113.732 28.001ZM133.036 27.705C131.442 28.0181 130.341 29.1429 130.341 30.4581C130.341 30.8579 130.513 30.9419 131.327 30.9419C132.139 30.9419 132.352 30.8381 132.533 30.3563C133.077 28.9116 135.241 29.2936 135.241 30.8341C135.241 31.2555 134.931 31.6612 134.2 32.1963C133.01 33.0678 132.567 33.7463 132.555 34.7195C132.547 35.3631 132.607 35.4008 133.649 35.4008C134.661 35.4008 134.751 35.3505 134.751 34.781C134.751 34.3222 135.065 33.9333 135.961 33.2823C137.858 31.9042 138.171 30.1403 136.782 28.6626C136.435 28.2945 135.81 27.9239 135.39 27.839C134.971 27.754 134.463 27.6512 134.261 27.6106C134.059 27.5697 133.508 27.6123 133.036 27.705ZM67.8533 28.8982C67.8447 29.5452 67.7501 31.386 67.6433 32.9887C67.4368 36.0879 67.0473 37.0515 66.1023 36.8016C65.7302 36.7033 65.6641 36.8506 65.6641 37.7773V38.8688L66.7053 38.8633C68.8024 38.8522 69.5388 37.5527 69.8428 33.3276C69.9617 31.6749 70.0623 30.1834 70.0663 30.0129C70.0717 29.7977 70.5597 29.7033 71.6663 29.7033H73.2587V34.286V38.8688H74.3612H75.4636V33.2952V27.7216H71.6663H67.869L67.8533 28.8982ZM122.257 33.2952V38.8688L125.013 38.8683C129.021 38.8678 130.312 38.0436 130.526 35.349C130.723 32.8738 129.104 31.4383 126.115 31.4378L124.462 31.4373V29.5794V27.7216H123.359H122.257V33.2952ZM83.5017 29.9574C84.4731 30.5562 85.0182 31.7561 85.0182 33.2952C85.0182 35.511 83.8852 36.9861 82.1832 36.9861C80.3291 36.9861 79.2896 35.6601 79.295 33.3021C79.2994 31.4772 79.8565 30.2904 80.9306 29.8182C82.0061 29.3451 82.5571 29.3751 83.5017 29.9574ZM105.736 29.8177C108.2 30.8589 108.054 35.9878 105.536 36.8187C104.085 37.2978 102.924 36.8033 102.229 35.4102C101.206 33.3601 101.821 30.5423 103.445 29.8284C104.47 29.378 104.692 29.377 105.736 29.8177ZM21.3976 32.7965C19.5768 34.477 18.136 36.4095 18.136 37.1714C18.136 38.1509 20.8062 39.1086 23.5508 39.1135C26.4263 39.1187 27.71 37.6897 27.6652 34.5338C27.6431 32.9699 27.6176 32.8847 27.4065 33.6667C26.6333 36.5306 26.4067 37.1043 25.8341 37.6478C25.264 38.1888 24.9982 38.247 23.1992 38.2252C20.756 38.1952 19.361 37.6894 19.361 36.8333C19.361 36.0537 20.3508 34.5959 22.1419 32.7378C24.0962 30.7103 23.6174 30.7479 21.3976 32.7965ZM127.646 33.9145C127.919 34.1897 128.136 34.7401 128.136 35.153C128.136 36.3327 127.392 36.8871 125.809 36.8871H124.462V35.153V33.419H125.809C126.83 33.419 127.275 33.5392 127.646 33.9145ZM46.9422 34.4384C45.5455 35.5491 46.7602 38.0142 48.428 37.4538C49.9308 36.949 50.1398 35.0076 48.7683 34.2905C47.8391 33.8047 47.7276 33.8136 46.9422 34.4384ZM48.8575 35.4783C49.2407 36.1162 48.2039 37.0013 47.512 36.627C47.0546 36.3795 46.8736 35.4089 47.2195 35.0592C47.5287 34.7465 48.5794 35.0153 48.8575 35.4783ZM132.657 37.242C131.903 38.4058 133.209 39.546 134.396 38.7598C135.044 38.33 135.141 37.8717 134.743 37.1184C134.367 36.4102 133.149 36.4823 132.657 37.242ZM66.0095 56.9444C65.9186 57.636 65.7488 58.2615 65.6317 58.3346C65.3223 58.5281 65.3708 59.9247 65.6871 59.9247C65.8343 59.9247 66.0127 59.7017 66.083 59.4292C66.1866 59.0289 66.4172 58.9338 67.2851 58.9338C68.1955 58.9338 68.3589 59.0091 68.3589 59.4292C68.3589 59.7017 68.4692 59.9247 68.6039 59.9247C68.7387 59.9247 68.8489 59.5903 68.8489 59.1815C68.8489 58.7728 68.7306 58.4384 68.5858 58.4384C68.4229 58.4384 68.3491 57.9432 68.392 57.1379L68.4613 55.8374L67.318 55.7623L66.1744 55.6872L66.0095 56.9444ZM69.8152 56.1703C69.1858 56.6855 69.0599 57.9236 69.5731 58.5491C69.7468 58.7607 70.2549 58.9338 70.7025 58.9338C72.1181 58.9338 72.7977 57.229 71.7888 56.2089C71.178 55.5914 70.5374 55.579 69.8152 56.1703ZM73.3134 56.0992C72.7014 56.5325 72.5453 58.1134 73.0627 58.6366C73.6586 59.239 75.4636 58.8664 75.4636 58.1411C75.4636 58.0321 75.2983 57.9429 75.0962 57.9429C74.894 57.9429 74.7287 58.0621 74.7287 58.208C74.7287 58.3537 74.4807 58.4371 74.1774 58.3938C73.7546 58.3329 73.6083 58.1265 73.5493 57.5077C73.4608 56.5803 74.0133 56.1951 74.7578 56.6652C75.3073 57.0123 75.4636 57.0249 75.4636 56.722C75.4636 56.3422 74.723 55.7135 74.2757 55.7135C74.0459 55.7135 73.6127 55.8872 73.3134 56.0992ZM75.9536 56.0851C75.9536 56.2894 76.1467 56.4566 76.3823 56.4564C76.7449 56.4564 76.7979 56.6476 76.7261 57.695C76.6528 58.7654 76.7028 58.9338 77.0936 58.9341C77.4846 58.9341 77.5345 58.7656 77.461 57.6955C77.3844 56.5756 77.4255 56.4566 77.8898 56.4566C78.183 56.4566 78.4035 56.2971 78.4035 56.0851C78.4035 55.8044 78.1041 55.7135 77.1786 55.7135C76.253 55.7135 75.9536 55.8044 75.9536 56.0851ZM79.2639 56.2057C78.8313 56.689 78.8401 56.6967 79.7505 56.6392C80.3166 56.6033 80.7196 56.7009 80.7858 56.8902C80.8595 57.1002 80.6148 57.1998 80.0251 57.1998C79.0366 57.1998 78.5329 57.7956 78.9239 58.502C79.099 58.8184 79.4628 58.9175 80.373 58.8967L81.5884 58.8692V57.7012C81.5884 55.9052 80.2841 55.066 79.2639 56.2057ZM82.3101 55.7754C82.303 55.8094 82.2753 56.5389 82.2489 57.3965L82.2009 58.9556L83.4258 58.8828C84.5591 58.8154 84.6566 58.7589 84.7282 58.1287C84.7708 57.7542 84.6873 57.4475 84.5425 57.4475C84.3693 57.4475 84.3847 57.2729 84.5875 56.937C84.8507 56.5012 84.8262 56.3742 84.4202 56.07C84.0336 55.7801 82.3589 55.5463 82.3101 55.7754ZM85.8519 56.9575C85.762 57.642 85.593 58.2615 85.4759 58.3346C85.1358 58.5471 85.2301 58.9338 85.6221 58.9338C86.0969 58.9338 86.4882 58.1577 86.4882 57.2161C86.4882 56.6219 86.5947 56.4566 86.9782 56.4566C87.4027 56.4566 87.4681 56.6219 87.4681 57.6952C87.4681 58.6311 87.558 58.9338 87.8356 58.9338C88.1245 58.9338 88.2031 58.5897 88.2031 57.3237V55.7135H87.109H86.0151L85.8519 56.9575ZM89.4866 55.8785C89.3166 55.9478 89.0596 56.227 88.9158 56.4988C88.7117 56.8842 88.7477 57.098 89.0789 57.4681C89.4827 57.9192 89.4817 57.9677 89.0606 58.4384C88.6318 58.9175 88.6326 58.9338 89.086 58.9338C89.344 58.9338 89.6929 58.7109 89.8612 58.4384C90.0295 58.1659 90.2764 57.9429 90.41 57.9429C90.5437 57.9429 90.653 58.1659 90.653 58.4384C90.653 58.7136 90.8164 58.9338 91.0205 58.9338C91.3093 58.9338 91.388 58.5897 91.388 57.3237V55.7135L90.5917 55.7331C90.1537 55.7437 89.6564 55.8094 89.4866 55.8785ZM92.3679 56.2089C91.7557 56.828 91.7349 57.9828 92.326 58.5238C92.8876 59.0379 94.1674 59.0562 94.5777 58.5563C95.0204 58.017 94.6767 57.803 93.9765 58.182C93.356 58.5176 92.6129 58.3918 92.6129 57.9506C92.6129 57.8102 93.109 57.6952 93.7154 57.6952C94.6544 57.6952 94.8178 57.6219 94.8178 57.1998C94.8178 56.9273 94.5973 56.4814 94.3278 56.2089C94.0584 55.9364 93.6174 55.7135 93.3479 55.7135C93.0784 55.7135 92.6374 55.9364 92.3679 56.2089ZM95.4795 55.8701C95.3852 55.9657 95.3078 56.694 95.3078 57.4889C95.3078 58.6081 95.3906 58.9338 95.6753 58.9338C95.9416 58.9338 96.0474 58.644 96.0602 57.881L96.0773 56.8282L96.5401 57.881C96.7944 58.4602 97.1131 58.9338 97.2484 58.9338C97.3836 58.9338 97.7094 58.4602 97.9728 57.881L98.4513 56.8282L98.4721 57.881C98.4873 58.6571 98.5924 58.9338 98.8719 58.9338C99.4496 58.9338 99.2783 55.8758 98.6943 55.7633C98.4069 55.7081 98.1242 56.0425 97.754 56.8755L97.2246 58.0668L96.7863 56.9521C96.3725 55.9 95.8654 55.4802 95.4795 55.8701ZM108.292 55.8854C107.327 56.2342 106.974 57.8129 107.697 58.5447C108.269 59.1223 109.418 59.0371 109.871 58.3831C110.408 57.6073 110.346 57.0244 109.651 56.3216C109.032 55.6954 108.918 55.659 108.292 55.8854ZM114.391 56.0501C113.954 56.2691 113.785 56.5842 113.727 57.2848C113.632 58.454 114.005 58.9338 115.01 58.9338C116.025 58.9338 116.377 58.5461 116.377 57.4282C116.377 56.1458 115.464 55.5121 114.391 56.0501ZM123.7 56.0501C123.264 56.2691 123.095 56.5842 123.037 57.2848C122.936 58.5229 123.334 58.9782 124.439 58.8845C125.066 58.831 125.34 58.6782 125.402 58.3455C125.483 57.9117 125.453 57.907 124.938 58.2719C124.132 58.8427 123.428 58.4047 123.529 57.394C123.631 56.3583 124.276 55.9627 124.913 56.5451C125.182 56.7916 125.456 56.8807 125.537 56.7485C125.881 56.1856 124.488 55.6558 123.7 56.0501ZM135.785 56.0997C135.174 56.5325 135.018 58.1136 135.535 58.6366C135.899 59.0049 137.359 59.0284 137.579 58.6695C137.826 58.2652 137.534 58.1161 137.042 58.3948C136.759 58.5546 136.445 58.5595 136.166 58.4087C135.443 58.0175 135.673 57.7279 136.77 57.6474C137.89 57.5654 138.194 57.1329 137.637 56.415C137.16 55.8004 136.392 55.6697 135.785 56.0997ZM101.511 57.4867C102.116 59.1221 102.122 59.677 101.535 59.677C101.344 59.677 101.188 59.7884 101.188 59.9247C101.188 60.2831 101.816 60.2289 102.133 59.8432C102.371 59.5526 103.637 56.3853 103.637 56.0794C103.637 56.0145 103.536 55.9612 103.412 55.9612C103.288 55.9612 102.995 56.5466 102.76 57.2617L102.332 58.5622L101.928 57.3388C101.705 56.666 101.389 56.0705 101.226 56.0155C101.04 55.9528 101.146 56.499 101.511 57.4867ZM104.372 56.9048C104.372 57.4237 104.21 58.0646 104.013 58.3291C103.602 58.8786 103.516 59.9247 103.882 59.9247C104.017 59.9247 104.127 59.7017 104.127 59.4292C104.127 59 104.291 58.9338 105.352 58.9338C106.414 58.9338 106.577 59 106.577 59.4292C106.577 59.7017 106.688 59.9247 106.822 59.9247C106.957 59.9247 107.067 59.646 107.067 59.3054C107.067 58.9648 106.957 58.6861 106.822 58.6861C106.688 58.6861 106.577 58.073 106.577 57.3237V55.9612H105.475H104.372V56.9048ZM110.742 57.4334V58.9338H111.692C112.759 58.9338 113.345 58.4322 113.064 57.7604C112.963 57.5201 112.868 57.045 112.853 56.7044C112.828 56.1582 112.702 56.0762 111.783 56.009L110.742 55.9327V57.4334ZM117.357 56.9944C117.357 57.6083 117.192 58.2117 116.951 58.4807C116.581 58.8947 116.58 58.9338 116.943 58.9338C117.476 58.9338 117.847 58.1716 117.847 57.0749C117.847 56.2828 117.913 56.1839 118.398 56.2535C118.878 56.3226 118.959 56.5002 119.023 57.6333C119.125 59.4268 119.562 59.2762 119.562 57.4475V55.9612H118.459H117.357V56.9944ZM120.297 57.4624V58.9638L121.191 58.8867C122.775 58.7505 122.978 57.1839 121.436 56.9977C120.984 56.9429 120.787 56.7735 120.787 56.4403C120.787 56.1767 120.676 55.9612 120.542 55.9612C120.405 55.9612 120.297 56.6268 120.297 57.4624ZM126.36 56.1361C126.851 56.2317 126.911 56.3905 126.911 57.5887C126.911 58.3284 127.022 58.9338 127.156 58.9338C127.291 58.9338 127.401 58.3284 127.401 57.5887C127.401 56.3905 127.462 56.2317 127.953 56.1361C128.256 56.0769 127.898 56.0286 127.156 56.0286C126.415 56.0286 126.057 56.0769 126.36 56.1361ZM128.871 57.4334V58.9338H129.821C130.888 58.9338 131.475 58.4322 131.193 57.7604C131.092 57.5201 130.997 57.045 130.982 56.7044C130.957 56.1582 130.831 56.0762 129.913 56.009L128.871 55.9327V57.4334ZM131.811 57.4475C131.811 59.3101 132.192 59.3921 133.249 57.7572L134.01 56.5805L134.013 57.7572C134.015 58.4044 134.126 58.9338 134.261 58.9338C134.397 58.9338 134.506 58.2732 134.506 57.4475C134.506 55.6038 134.166 55.526 133.159 57.1384L132.424 58.3145L132.349 57.1379C132.241 55.4403 131.811 55.688 131.811 57.4475ZM83.7634 56.4329C84.1532 56.6823 83.9256 57.1998 83.4258 57.1998C83.0054 57.1998 82.7335 56.7876 82.9358 56.4566C83.1201 56.1549 83.3207 56.1492 83.7634 56.4329ZM106.04 57.3856C105.97 58.4778 105.914 58.5682 105.258 58.644C104.623 58.7173 104.566 58.6663 104.703 58.1486C104.787 57.831 104.857 57.2647 104.859 56.8902C104.862 56.3256 104.97 56.2089 105.488 56.2089C106.082 56.2089 106.11 56.2691 106.04 57.3856ZM109.395 56.7933C109.821 57.4517 109.675 58.0879 109.015 58.4448C108.064 58.9596 107.294 57.0281 108.231 56.4765C108.852 56.1108 108.974 56.1443 109.395 56.7933ZM112.335 56.7044C112.335 56.9087 112.087 57.1116 111.783 57.1552C111.359 57.2159 111.232 57.1121 111.232 56.7044C111.232 56.2966 111.359 56.1928 111.783 56.2535C112.087 56.2971 112.335 56.5 112.335 56.7044ZM115.593 56.5062C116.408 57.3303 115.577 58.9336 114.607 58.4087C113.832 57.9893 114.174 56.2089 115.029 56.2089C115.178 56.2089 115.431 56.3427 115.593 56.5062ZM130.464 56.7044C130.464 56.9087 130.216 57.1116 129.913 57.1552C129.488 57.2159 129.361 57.1121 129.361 56.7044C129.361 56.2966 129.488 56.1928 129.913 56.2535C130.216 56.2971 130.464 56.5 130.464 56.7044ZM137.107 56.6424C137.519 57.0559 137.502 57.0797 136.734 57.1555C135.768 57.2506 135.556 57.0928 135.971 56.5865C136.37 56.1007 136.579 56.1108 137.107 56.6424ZM67.869 57.4475C67.869 58.3656 67.819 58.4384 67.1889 58.4384C66.5431 58.4384 66.5132 58.3883 66.6021 57.4475C66.6825 56.5936 66.7766 56.4566 67.2822 56.4566C67.8033 56.4566 67.869 56.5674 67.869 57.4475ZM71.4441 57.0792C71.7261 58.2157 70.5954 58.9284 70.0739 57.9429C69.8877 57.5909 69.8877 57.3041 70.0739 56.9521C70.4497 56.2421 71.2547 56.3167 71.4441 57.0792ZM90.653 56.9521C90.653 57.529 89.8017 57.6482 89.5937 57.1002C89.4285 56.665 89.6258 56.4566 90.2039 56.4566C90.4896 56.4566 90.653 56.6367 90.653 56.9521ZM94.0228 56.8902C94.089 57.093 93.8631 57.1998 93.3682 57.1998C92.6404 57.1998 92.4226 56.9793 92.7866 56.6112C93.0497 56.3452 93.9084 56.5389 94.0228 56.8902ZM121.767 57.5714C122.01 57.8679 122.01 58.018 121.767 58.3145C121.257 58.9358 120.787 58.7577 120.787 57.9429C120.787 57.1282 121.257 56.9501 121.767 57.5714ZM80.8534 57.9506C80.8534 58.0913 80.688 58.2704 80.4859 58.3487C79.9952 58.5392 79.3132 58.2583 79.505 57.9447C79.7056 57.6165 80.8534 57.6217 80.8534 57.9506ZM84.0383 58.0668C84.0383 58.2979 83.807 58.4384 83.4258 58.4384C83.0446 58.4384 82.8133 58.2979 82.8133 58.0668C82.8133 57.8357 83.0446 57.6952 83.4258 57.6952C83.807 57.6952 84.0383 57.8357 84.0383 58.0668ZM112.702 58.0403C112.702 58.3945 112.195 58.6861 111.58 58.6861C111.388 58.6861 111.232 58.4632 111.232 58.1907C111.232 57.8052 111.396 57.6952 111.967 57.6952C112.432 57.6952 112.702 57.8221 112.702 58.0403ZM130.831 58.0403C130.831 58.3945 130.324 58.6861 129.709 58.6861C129.518 58.6861 129.361 58.4632 129.361 58.1907C129.361 57.8052 129.525 57.6952 130.096 57.6952C130.561 57.6952 130.831 57.8221 130.831 58.0403Z" fill="black"/>
</g>
</g>
<path d="M67.1433 54.7819C67.1433 54.661 67.1433 54.5458 67.1433 54.4363C67.1433 54.3248 67.1433 54.2077 67.1433 54.085C67.1433 53.9603 67.1433 53.8206 67.1433 53.6657V53.3824C67.1433 53.2144 67.1433 53.0642 67.1433 52.932C67.1433 52.7998 67.1433 52.6742 67.1433 52.5552C67.1433 52.4363 67.1433 52.3135 67.1433 52.187L67.4443 52.6402H65.9901L66.3107 52.187C66.3051 52.3059 66.2985 52.423 66.291 52.5382C66.2854 52.6534 66.2798 52.7724 66.2742 52.8952C66.2685 53.0161 66.2629 53.1473 66.2573 53.289C66.2498 53.4457 66.2329 53.594 66.2067 53.7337C66.1823 53.8735 66.1476 54.0028 66.1026 54.1218C66.0595 54.2408 66.006 54.3466 65.9423 54.4391L65.2616 54.3541C65.3103 54.3107 65.36 54.2446 65.4107 54.1558C65.4632 54.0652 65.5091 53.9405 65.5485 53.7819C65.5897 53.6232 65.6169 53.4212 65.63 53.1756C65.6432 52.9603 65.6544 52.7658 65.6638 52.5921C65.6751 52.4183 65.6854 52.2455 65.6947 52.0737H67.8465C67.8465 52.2096 67.8465 52.3437 67.8465 52.4759C67.8465 52.6081 67.8465 52.7469 67.8465 52.8924C67.8465 53.0378 67.8465 53.2011 67.8465 53.3824V53.6657C67.8465 53.8999 67.8465 54.1001 67.8465 54.2663C67.8465 54.4306 67.8465 54.6025 67.8465 54.7819H67.1433ZM65 55.6629C65 55.5552 65 55.4476 65 55.3399C65 55.2323 65 55.1246 65 55.017C65 54.9075 65 54.7932 65 54.6742C65 54.5552 65 54.44 65 54.3286C65.1631 54.3286 65.3282 54.3286 65.495 54.3286C65.6619 54.3286 65.8251 54.3286 65.9845 54.3286H67.2839C67.4414 54.3286 67.6036 54.3286 67.7705 54.3286C67.9374 54.3286 68.1034 54.3286 68.2684 54.3286C68.2684 54.44 68.2684 54.5552 68.2684 54.6742C68.2684 54.7932 68.2684 54.9075 68.2684 55.017C68.2684 55.1246 68.2684 55.2323 68.2684 55.3399C68.2684 55.4476 68.2684 55.5552 68.2684 55.6629H67.6524L67.6243 54.8074L67.7452 54.8952H65.5204L65.6469 54.8074L65.616 55.6629H65Z" fill="black"/>
<path d="M70.0487 54.966C69.8011 54.966 69.5855 54.9263 69.4017 54.847C69.218 54.7658 69.0651 54.6553 68.9433 54.5156C68.8214 54.3758 68.7304 54.2162 68.6704 54.0368C68.6104 53.8574 68.5804 53.6695 68.5804 53.4731C68.5804 53.1917 68.6367 52.9405 68.7492 52.7195C68.8617 52.4967 69.0258 52.3211 69.2414 52.1926C69.4589 52.0642 69.7233 52 70.0346 52C70.2746 52 70.4846 52.0378 70.6646 52.1133C70.8465 52.187 70.9984 52.2908 71.1203 52.4249C71.2441 52.559 71.3369 52.7158 71.3988 52.8952C71.4606 53.0727 71.4916 53.2653 71.4916 53.4731C71.4916 53.7564 71.4344 54.0104 71.32 54.2351C71.2075 54.4599 71.0434 54.6383 70.8278 54.7705C70.6121 54.9008 70.3524 54.966 70.0487 54.966ZM70.0458 54.3711C70.2071 54.3711 70.3402 54.3286 70.4452 54.2436C70.5521 54.1568 70.6318 54.0453 70.6843 53.9093C70.7368 53.7734 70.7631 53.628 70.7631 53.4731C70.7631 53.2918 70.7331 53.136 70.6731 53.0057C70.6149 52.8735 70.5315 52.7724 70.4227 52.7025C70.314 52.6308 70.1874 52.5949 70.043 52.5949C69.8836 52.5949 69.7486 52.6346 69.638 52.7139C69.5292 52.7913 69.4467 52.8961 69.3905 53.0283C69.3361 53.1605 69.3089 53.3088 69.3089 53.4731C69.3089 53.628 69.3361 53.7734 69.3905 53.9093C69.4449 54.0453 69.5264 54.1568 69.6352 54.2436C69.7458 54.3286 69.8827 54.3711 70.0458 54.3711Z" fill="black"/>
<path d="M73.4079 54.9547C73.0948 54.9547 72.8285 54.8914 72.6091 54.7649C72.3916 54.6364 72.2256 54.4618 72.1113 54.2408C71.9987 54.0198 71.9425 53.7686 71.9425 53.4873C71.9425 53.204 71.9959 52.9509 72.1028 52.728C72.2097 52.5033 72.3672 52.3267 72.5754 52.1983C72.7854 52.068 73.0451 52.0028 73.3545 52.0028C73.4651 52.0028 73.5748 52.0113 73.6836 52.0283C73.7923 52.0453 73.8945 52.0699 73.9902 52.102C74.0877 52.1322 74.1739 52.1681 74.2489 52.2096L74.1927 52.8385C74.0858 52.7781 73.9873 52.7318 73.8973 52.6997C73.8092 52.6676 73.7276 52.6459 73.6526 52.6346C73.5776 52.6232 73.5101 52.6176 73.4501 52.6176C73.2138 52.6176 73.0245 52.6941 72.8819 52.847C72.7413 53 72.671 53.2068 72.671 53.4674C72.671 53.6393 72.7047 53.7923 72.7722 53.9263C72.8397 54.0585 72.9391 54.1634 73.0704 54.2408C73.2035 54.3163 73.3685 54.3541 73.5654 54.3541C73.6386 54.3541 73.7117 54.3475 73.7848 54.3343C73.858 54.3211 73.9301 54.3012 74.0014 54.2748C74.0727 54.2465 74.1411 54.2106 74.2067 54.1671L74.2489 54.796C74.1852 54.8263 74.1111 54.8536 74.0267 54.8782C73.9442 54.9008 73.8514 54.9188 73.7483 54.932C73.6451 54.9471 73.5317 54.9547 73.4079 54.9547Z" fill="black"/>
<path d="M75.4515 54.8952C75.4515 54.6912 75.4515 54.4939 75.4515 54.3031C75.4515 54.1124 75.4515 53.8999 75.4515 53.6657V53.3824C75.4515 53.2162 75.4515 53.067 75.4515 52.9348C75.4515 52.8026 75.4515 52.6771 75.4515 52.5581C75.4515 52.4391 75.4515 52.3154 75.4515 52.187L75.6794 52.6431H75.5584C75.4009 52.6431 75.2378 52.6431 75.069 52.6431C74.9021 52.6431 74.7371 52.6431 74.574 52.6431V52.0737H77.0407V52.6431C76.8795 52.6431 76.7144 52.6431 76.5457 52.6431C76.3788 52.6431 76.2157 52.6431 76.0563 52.6431H75.9381L76.166 52.187C76.166 52.3154 76.166 52.4391 76.166 52.5581C76.166 52.6771 76.166 52.8026 76.166 52.9348C76.166 53.067 76.166 53.2162 76.166 53.3824V53.6657C76.166 53.8999 76.166 54.1124 76.166 54.3031C76.166 54.4939 76.166 54.6912 76.166 54.8952H75.4515Z" fill="black"/>
<path d="M78.2082 54.9603C78.0507 54.9603 77.9101 54.9273 77.7863 54.8612C77.6626 54.7951 77.5641 54.6997 77.491 54.5751C77.4197 54.4485 77.3841 54.2965 77.3841 54.119C77.3841 53.9622 77.4113 53.83 77.4657 53.7224C77.52 53.6128 77.5913 53.5241 77.6794 53.4561C77.7694 53.3862 77.8679 53.3324 77.9748 53.2946C78.0835 53.2568 78.1932 53.2295 78.3039 53.2125L79.1055 53.0935C79.1111 52.9613 79.0886 52.8593 79.038 52.7875C78.9892 52.7158 78.9189 52.6667 78.827 52.6402C78.7351 52.6119 78.6292 52.5977 78.5092 52.5977C78.4454 52.5977 78.376 52.6034 78.301 52.6147C78.2279 52.6242 78.1501 52.6393 78.0676 52.6601C77.987 52.6808 77.9026 52.7073 77.8144 52.7394C77.7263 52.7696 77.6363 52.8064 77.5444 52.8499L77.5107 52.2238C77.58 52.1974 77.6579 52.1709 77.7441 52.1445C77.8323 52.118 77.9279 52.0944 78.031 52.0737C78.1342 52.051 78.241 52.034 78.3517 52.0227C78.4642 52.0094 78.5795 52.0028 78.6976 52.0028C78.9264 52.0028 79.1214 52.0368 79.2827 52.1048C79.4458 52.1709 79.5705 52.2776 79.6568 52.4249C79.743 52.5703 79.7862 52.7602 79.7862 52.9943C79.7862 53.085 79.7862 53.1974 79.7862 53.3314C79.7862 53.4655 79.7862 53.5883 79.7862 53.6997V54.0113C79.7862 54.1492 79.7862 54.2899 79.7862 54.4334C79.7862 54.5751 79.7862 54.729 79.7862 54.8952H79.1533L79.1111 54.5269H79.052C78.9995 54.5968 78.9339 54.6648 78.8551 54.7309C78.7764 54.7951 78.6826 54.8499 78.5739 54.8952C78.467 54.9386 78.3451 54.9603 78.2082 54.9603ZM78.467 54.3966C78.5457 54.3966 78.6236 54.3777 78.7004 54.3399C78.7773 54.3022 78.8486 54.2493 78.9142 54.1813C78.9817 54.1133 79.0389 54.0321 79.0858 53.9377V53.4929C79.0614 53.5099 79.0286 53.526 78.9873 53.5411C78.948 53.5543 78.8889 53.5694 78.8101 53.5864C78.7314 53.6034 78.6208 53.6251 78.4782 53.6516C78.3976 53.6667 78.3292 53.6922 78.2729 53.728C78.2185 53.7639 78.1763 53.8102 78.1463 53.8669C78.1163 53.9235 78.1013 53.9887 78.1013 54.0623C78.1013 54.1851 78.1379 54.272 78.211 54.3229C78.286 54.372 78.3714 54.3966 78.467 54.3966Z" fill="black"/>
<path d="M80.4416 54.8952C80.4416 54.6893 80.4416 54.491 80.4416 54.3003C80.4416 54.1076 80.4416 53.8942 80.4416 53.6601V53.3768C80.4416 53.1974 80.4416 53.0349 80.4416 52.8895C80.4416 52.7441 80.4416 52.6062 80.4416 52.4759C80.4416 52.3437 80.4416 52.2096 80.4416 52.0737C80.6328 52.0737 80.8569 52.0737 81.1138 52.0737C81.3726 52.0737 81.6248 52.0737 81.8704 52.0737C82.1123 52.0737 82.3045 52.102 82.447 52.1586C82.5895 52.2134 82.6917 52.2908 82.7536 52.3909C82.8155 52.4891 82.8464 52.6043 82.8464 52.7365C82.8464 52.9141 82.8014 53.0557 82.7114 53.1615C82.6214 53.2653 82.5136 53.3362 82.388 53.3739V53.4221C82.4761 53.4429 82.5595 53.4788 82.6383 53.5297C82.7189 53.5788 82.7846 53.6497 82.8352 53.7422C82.8877 53.8329 82.9139 53.9547 82.9139 54.1076C82.9139 54.2625 82.8793 54.3994 82.8099 54.5184C82.7405 54.6355 82.6205 54.728 82.4498 54.796C82.2792 54.8621 82.0392 54.8952 81.7298 54.8952C81.4691 54.8952 81.2301 54.8952 81.0125 54.8952C80.795 54.8952 80.6047 54.8952 80.4416 54.8952ZM81.1363 54.3541H81.6482C81.7832 54.3541 81.8901 54.3428 81.9689 54.3201C82.0495 54.2975 82.1076 54.2616 82.1433 54.2125C82.1789 54.1634 82.1967 54.102 82.1967 54.0283C82.1967 53.915 82.1545 53.8319 82.0701 53.779C81.9857 53.7262 81.8582 53.6997 81.6876 53.6997H80.9366V53.2323H81.6398C81.756 53.2323 81.8489 53.2191 81.9182 53.1926C81.9895 53.1662 82.0411 53.1294 82.0729 53.0822C82.1048 53.0331 82.1208 52.9754 82.1208 52.9093C82.1208 52.8036 82.0842 52.728 82.0111 52.6827C81.9398 52.6355 81.8357 52.6119 81.6988 52.6119H81.1363C81.1363 52.7422 81.1363 52.8669 81.1363 52.9858C81.1363 53.1048 81.1363 53.2351 81.1363 53.3768V53.6601C81.1363 53.7885 81.1363 53.9075 81.1363 54.017C81.1363 54.1265 81.1363 54.2389 81.1363 54.3541Z" fill="black"/>
<path d="M83.5694 54.9547C83.53 54.9547 83.4859 54.9528 83.4372 54.949C83.3903 54.9452 83.3444 54.9396 83.2994 54.932C83.2562 54.9263 83.2178 54.9178 83.184 54.9065L83.215 54.3059C83.245 54.3116 83.2741 54.3163 83.3022 54.3201C83.3322 54.322 83.3556 54.3229 83.3725 54.3229C83.4644 54.3229 83.5375 54.288 83.5919 54.2181C83.6481 54.1483 83.6913 54.0557 83.7213 53.9405C83.7513 53.8234 83.7738 53.695 83.7888 53.5552C83.8038 53.4136 83.815 53.272 83.8225 53.1303C83.8338 52.949 83.845 52.7696 83.8563 52.5921C83.8694 52.4127 83.8816 52.2398 83.8929 52.0737H86.0727C86.0727 52.2096 86.0727 52.3437 86.0727 52.4759C86.0727 52.6062 86.0727 52.745 86.0727 52.8924C86.0727 53.0378 86.0727 53.2011 86.0727 53.3824V53.6657C86.0727 53.8999 86.0727 54.1124 86.0727 54.3031C86.0727 54.4939 86.0727 54.6912 86.0727 54.8952H85.3583C85.3583 54.6912 85.3583 54.4939 85.3583 54.3031C85.3583 54.1124 85.3583 53.8999 85.3583 53.6657V53.3824C85.3583 53.2162 85.3583 53.067 85.3583 52.9348C85.3583 52.8026 85.3583 52.6771 85.3583 52.5581C85.3583 52.4391 85.3583 52.3154 85.3583 52.187L85.783 52.6431H84.1826L84.5285 52.187C84.5192 52.3116 84.5098 52.4438 84.5004 52.5836C84.491 52.7214 84.4807 52.8593 84.4695 52.9972C84.4601 53.1331 84.4507 53.2653 84.4413 53.3938C84.4245 53.6166 84.402 53.8234 84.3738 54.0142C84.3476 54.203 84.3054 54.3683 84.2473 54.5099C84.1891 54.6497 84.1057 54.7592 83.9969 54.8385C83.89 54.916 83.7475 54.9547 83.5694 54.9547Z" fill="black"/>
<path d="M86.5809 54.8952C86.6747 54.7573 86.7675 54.6185 86.8594 54.4788C86.9513 54.339 87.0413 54.203 87.1294 54.0708L87.5119 53.4958L87.7145 53.7819C87.4726 53.7819 87.2766 53.7469 87.1266 53.6771C86.9785 53.6072 86.8697 53.508 86.8003 53.3796C86.7328 53.2512 86.6991 53.102 86.6991 52.932C86.6991 52.7224 86.7441 52.5552 86.8341 52.4306C86.926 52.3059 87.0582 52.2153 87.2307 52.1586C87.4051 52.102 87.617 52.0737 87.8663 52.0737C88.0201 52.0737 88.1748 52.0737 88.3304 52.0737C88.488 52.0737 88.6361 52.0737 88.7749 52.0737C88.9155 52.0737 89.0346 52.0737 89.1321 52.0737C89.1321 52.2096 89.1321 52.3437 89.1321 52.4759C89.1321 52.6081 89.1321 52.7469 89.1321 52.8924C89.1321 53.0378 89.1321 53.2011 89.1321 53.3824V53.6657C89.1321 53.8999 89.1321 54.1124 89.1321 54.3031C89.1321 54.492 89.1321 54.6893 89.1321 54.8952H88.4373C88.4373 54.7819 88.4373 54.6723 88.4373 54.5666C88.4373 54.4608 88.4373 54.3522 88.4373 54.2408C88.4373 54.1275 88.4373 54.0076 88.4373 53.881V53.3796C88.4373 53.2398 88.4373 53.1086 88.4373 52.9858C88.4373 52.8612 88.4373 52.7394 88.4373 52.6204H87.9339C87.8513 52.6204 87.7707 52.6317 87.692 52.6544C87.6132 52.6752 87.5476 52.7158 87.4951 52.7762C87.4444 52.8366 87.4191 52.9226 87.4191 53.034C87.4191 53.1284 87.4369 53.2021 87.4726 53.255C87.5101 53.3078 87.5569 53.3466 87.6132 53.3711C87.6713 53.3957 87.7313 53.4108 87.7932 53.4164C87.857 53.4221 87.9142 53.4249 87.9648 53.4249H88.5442V53.9065H87.7932L88.1476 53.6629L87.841 54.1416C87.7623 54.2682 87.6826 54.3947 87.6019 54.5212C87.5232 54.6459 87.4435 54.7705 87.3629 54.8952H86.5809Z" fill="black"/>
<path d="M91.2442 54.966C90.8917 54.966 90.6029 54.9018 90.3779 54.7734C90.1529 54.6449 89.987 54.4684 89.8801 54.2436C89.7732 54.0189 89.7198 53.762 89.7198 53.4731C89.7198 53.186 89.7704 52.932 89.8716 52.711C89.9748 52.4882 90.1257 52.3144 90.3245 52.1898C90.5233 52.0652 90.767 52.0028 91.0558 52.0028C91.3052 52.0028 91.518 52.0491 91.6943 52.1416C91.8724 52.2323 92.0093 52.3692 92.1049 52.5524C92.2006 52.7337 92.2484 52.9622 92.2484 53.238C92.2484 53.3116 92.2465 53.3777 92.2428 53.4363C92.2409 53.4948 92.2353 53.5524 92.2259 53.6091L91.6043 53.3569C91.608 53.3305 91.6108 53.3041 91.6127 53.2776C91.6146 53.2493 91.6155 53.2229 91.6155 53.1983C91.6155 52.9906 91.564 52.8281 91.4608 52.711C91.3577 52.5921 91.2246 52.5326 91.0614 52.5326C90.9377 52.5326 90.8289 52.5685 90.7351 52.6402C90.6414 52.7101 90.5673 52.8083 90.5129 52.9348C90.4586 53.0614 90.4314 53.2077 90.4314 53.3739V53.4844C90.4314 53.6676 90.4632 53.8253 90.527 53.9575C90.5908 54.0878 90.6892 54.1889 90.8223 54.2606C90.9555 54.3305 91.1233 54.3654 91.3258 54.3654C91.4046 54.3654 91.4927 54.3588 91.5902 54.3456C91.6896 54.3305 91.7899 54.3078 91.8912 54.2776C91.9924 54.2474 92.0871 54.2087 92.1753 54.1615L92.1978 54.779C92.1265 54.8149 92.0431 54.847 91.9474 54.8754C91.8518 54.9037 91.7449 54.9254 91.6268 54.9405C91.5086 54.9575 91.3811 54.966 91.2442 54.966ZM90.001 53.6091V53.1586L91.804 53.1275L92.2259 53.289V53.6091H90.001Z" fill="black"/>
<path d="M92.6666 54.8952C92.6891 54.6912 92.7107 54.4891 92.7313 54.289C92.7538 54.0888 92.7754 53.8905 92.796 53.6941L92.8354 53.3088C92.8579 53.1048 92.8804 52.899 92.9029 52.6912C92.9254 52.4835 92.9469 52.2776 92.9676 52.0737H93.7523C93.8161 52.2304 93.8798 52.389 93.9436 52.5496C94.0073 52.7101 94.0701 52.8678 94.132 53.0227L94.4977 53.9462H94.5539L94.914 53.0227C94.9777 52.864 95.0405 52.7054 95.1024 52.5467C95.1643 52.3881 95.2262 52.2304 95.2881 52.0737H96.0559C96.0784 52.2738 96.1009 52.4797 96.1234 52.6912C96.1478 52.9027 96.1713 53.1095 96.1938 53.3116L96.2388 53.7054C96.2594 53.8942 96.2809 54.0888 96.3034 54.289C96.3259 54.4891 96.3485 54.6912 96.371 54.8952H95.6987C95.68 54.7044 95.6603 54.5127 95.6396 54.3201C95.6209 54.1275 95.6012 53.9367 95.5806 53.7479L95.5046 53.0198H95.4512L95.1727 53.7932C95.1071 53.9764 95.0415 54.1596 94.9758 54.3428C94.9102 54.526 94.8446 54.7101 94.779 54.8952H94.2727C94.2033 54.7101 94.1339 54.5269 94.0645 54.3456C93.997 54.1643 93.9295 53.9839 93.862 53.8045L93.5667 53.0198H93.5132L93.4373 53.7337C93.4167 53.9282 93.396 54.1228 93.3754 54.3173C93.3548 54.5099 93.3342 54.7025 93.3135 54.8952H92.6666Z" fill="black"/>
<path d="M100.581 56C100.656 55.8149 100.731 55.628 100.806 55.4391C100.881 55.2502 100.956 55.0633 101.031 54.8782V54.9972C100.96 54.8045 100.888 54.6091 100.817 54.4108C100.746 54.2125 100.676 54.0198 100.606 53.8329L100.421 53.3229C100.347 53.1209 100.271 52.9141 100.193 52.7025C100.116 52.491 100.041 52.2852 99.9677 52.085L100.466 52.0652C100.546 52.3088 100.625 52.5467 100.702 52.779C100.779 53.0113 100.857 53.2483 100.938 53.4901L101.233 54.3938H101.284L101.608 53.4873C101.692 53.2512 101.775 53.017 101.858 52.7847C101.94 52.5524 102.024 52.3192 102.108 52.085H102.6C102.54 52.2361 102.482 52.3824 102.426 52.5241C102.372 52.6638 102.311 52.8187 102.243 52.9887C102.178 53.1586 102.099 53.3607 102.007 53.5949L101.698 54.3853C101.557 54.7441 101.437 55.0491 101.338 55.3003C101.24 55.5515 101.151 55.779 101.07 55.983L100.581 56Z" fill="black"/>
<path d="M104.853 54.8215C104.853 54.6912 104.853 54.5666 104.853 54.4476C104.853 54.3286 104.853 54.2049 104.853 54.0765C104.853 53.9481 104.853 53.8074 104.853 53.6544V53.3711C104.853 53.2106 104.853 53.0642 104.853 52.932C104.853 52.7979 104.853 52.6695 104.853 52.5467C104.853 52.4221 104.853 52.2927 104.853 52.1586L105.061 52.4703H103.55L103.761 52.1586C103.756 52.2795 103.749 52.3975 103.742 52.5127C103.734 52.628 103.727 52.7488 103.719 52.8754C103.714 53 103.706 53.1388 103.697 53.2918C103.687 53.4655 103.668 53.6327 103.638 53.7932C103.609 53.9537 103.57 54.102 103.519 54.238C103.469 54.372 103.406 54.491 103.331 54.5949L102.875 54.5326C102.928 54.4816 102.982 54.4051 103.039 54.3031C103.095 54.1992 103.144 54.0595 103.188 53.8839C103.233 53.7063 103.264 53.4806 103.283 53.2068C103.296 52.9745 103.309 52.7724 103.32 52.6006C103.331 52.4268 103.341 52.255 103.351 52.085H105.311C105.311 52.2229 105.311 52.3588 105.311 52.4929C105.311 52.6251 105.311 52.763 105.311 52.9065C105.311 53.0482 105.311 53.203 105.311 53.3711V53.6544C105.311 53.8867 105.311 54.0907 105.311 54.2663C105.311 54.4419 105.311 54.627 105.311 54.8215H104.853ZM102.605 55.6771C102.605 55.5826 102.605 55.4882 102.605 55.3938C102.605 55.2993 102.605 55.2049 102.605 55.1105C102.605 55.0142 102.605 54.915 102.605 54.813C102.605 54.7092 102.605 54.6081 102.605 54.5099C102.772 54.5099 102.942 54.5099 103.114 54.5099C103.287 54.5099 103.454 54.5099 103.615 54.5099H104.726C104.889 54.5099 105.056 54.5099 105.227 54.5099C105.399 54.5099 105.57 54.5099 105.739 54.5099C105.739 54.6081 105.739 54.7092 105.739 54.813C105.739 54.915 105.739 55.0142 105.739 55.1105C105.739 55.2049 105.739 55.2993 105.739 55.3938C105.739 55.4882 105.739 55.5826 105.739 55.6771H105.334L105.311 54.8329L105.415 54.8952H102.929L103.033 54.8329L103.013 55.6771H102.605Z" fill="black"/>
<path d="M107.538 54.9575C107.308 54.9575 107.104 54.9178 106.928 54.8385C106.754 54.7573 106.607 54.6478 106.489 54.5099C106.371 54.372 106.281 54.2144 106.219 54.0368C106.159 53.8574 106.129 53.6695 106.129 53.4731C106.129 53.1917 106.186 52.9424 106.298 52.7252C106.412 52.5061 106.574 52.3333 106.782 52.2068C106.992 52.0803 107.241 52.017 107.53 52.017C107.753 52.017 107.951 52.0538 108.124 52.1275C108.296 52.2011 108.442 52.3041 108.562 52.4363C108.682 52.5685 108.773 52.7233 108.835 52.9008C108.897 53.0765 108.928 53.2672 108.928 53.4731C108.928 53.7507 108.872 54.0019 108.759 54.2266C108.647 54.4514 108.486 54.6298 108.278 54.762C108.072 54.8924 107.825 54.9575 107.538 54.9575ZM107.538 54.5496C107.743 54.5496 107.913 54.4986 108.048 54.3966C108.183 54.2946 108.284 54.1615 108.351 53.9972C108.419 53.8329 108.453 53.6582 108.453 53.4731C108.453 53.2616 108.415 53.0774 108.34 52.9207C108.265 52.7639 108.159 52.6421 108.022 52.5552C107.885 52.4684 107.723 52.4249 107.536 52.4249C107.333 52.4249 107.163 52.4712 107.024 52.5637C106.885 52.6563 106.78 52.7819 106.709 52.9405C106.639 53.0992 106.605 53.2767 106.605 53.4731C106.605 53.6582 106.638 53.8329 106.706 53.9972C106.775 54.1615 106.879 54.2946 107.018 54.3966C107.157 54.4986 107.33 54.5496 107.538 54.5496Z" fill="black"/>
<path d="M109.652 54.8952C109.652 54.6856 109.652 54.4844 109.652 54.2918C109.652 54.0973 109.652 53.8839 109.652 53.6516V53.3683C109.652 53.2002 109.652 53.0453 109.652 52.9037C109.652 52.762 109.652 52.6251 109.652 52.4929C109.652 52.3588 109.652 52.2229 109.652 52.085C109.82 52.085 110.023 52.085 110.259 52.085C110.497 52.085 110.726 52.085 110.946 52.085C111.167 52.085 111.344 52.1124 111.477 52.1671C111.61 52.2219 111.706 52.2993 111.764 52.3994C111.824 52.4976 111.854 52.6147 111.854 52.7507C111.854 52.9282 111.808 53.0708 111.716 53.1785C111.626 53.2861 111.515 53.3607 111.382 53.4023V53.4391C111.472 53.4561 111.558 53.4891 111.64 53.5382C111.725 53.5855 111.794 53.6563 111.848 53.7507C111.905 53.8432 111.933 53.9669 111.933 54.1218C111.933 54.2691 111.9 54.4013 111.834 54.5184C111.771 54.6336 111.656 54.7252 111.491 54.7932C111.328 54.8612 111.096 54.8952 110.794 54.8952C110.567 54.8952 110.355 54.8952 110.158 54.8952C109.961 54.8952 109.792 54.8952 109.652 54.8952ZM110.105 54.5184H110.754C110.934 54.5184 111.076 54.5014 111.179 54.4674C111.284 54.4334 111.357 54.3834 111.398 54.3173C111.442 54.2512 111.463 54.1709 111.463 54.0765C111.463 53.916 111.407 53.8026 111.294 53.7365C111.184 53.6704 111.022 53.6374 110.808 53.6374H109.981V53.2946H110.76C110.916 53.2946 111.038 53.2757 111.128 53.238C111.218 53.1983 111.282 53.1454 111.32 53.0793C111.359 53.0113 111.379 52.9348 111.379 52.8499C111.379 52.7063 111.332 52.6062 111.238 52.5496C111.146 52.491 111.015 52.4618 110.844 52.4618H110.105C110.105 52.6128 110.105 52.7592 110.105 52.9008C110.105 53.0425 110.105 53.1964 110.105 53.3626V53.6459C110.105 53.8064 110.105 53.9556 110.105 54.0935C110.105 54.2314 110.105 54.373 110.105 54.5184Z" fill="black"/>
<path d="M113.884 54.9575C113.653 54.9575 113.45 54.9178 113.273 54.8385C113.099 54.7573 112.953 54.6478 112.834 54.5099C112.716 54.372 112.626 54.2144 112.564 54.0368C112.504 53.8574 112.474 53.6695 112.474 53.4731C112.474 53.1917 112.531 52.9424 112.643 52.7252C112.758 52.5061 112.919 52.3333 113.127 52.2068C113.337 52.0803 113.586 52.017 113.875 52.017C114.098 52.017 114.296 52.0538 114.469 52.1275C114.641 52.2011 114.787 52.3041 114.907 52.4363C115.027 52.5685 115.118 52.7233 115.18 52.9008C115.242 53.0765 115.273 53.2672 115.273 53.4731C115.273 53.7507 115.217 54.0019 115.104 54.2266C114.992 54.4514 114.831 54.6298 114.623 54.762C114.417 54.8924 114.17 54.9575 113.884 54.9575ZM113.884 54.5496C114.088 54.5496 114.258 54.4986 114.393 54.3966C114.528 54.2946 114.629 54.1615 114.696 53.9972C114.764 53.8329 114.798 53.6582 114.798 53.4731C114.798 53.2616 114.76 53.0774 114.685 52.9207C114.61 52.7639 114.504 52.6421 114.367 52.5552C114.23 52.4684 114.068 52.4249 113.881 52.4249C113.678 52.4249 113.508 52.4712 113.369 52.5637C113.23 52.6563 113.125 52.7819 113.054 52.9405C112.984 53.0992 112.95 53.2767 112.95 53.4731C112.95 53.6582 112.984 53.8329 113.051 53.9972C113.12 54.1615 113.224 54.2946 113.363 54.3966C113.502 54.4986 113.675 54.5496 113.884 54.5496Z" fill="black"/>
<path d="M115.882 54.9462C115.854 54.9462 115.822 54.9443 115.787 54.9405C115.751 54.9386 115.716 54.9348 115.68 54.9292C115.646 54.9235 115.614 54.9169 115.584 54.9093L115.612 54.5042C115.644 54.5118 115.675 54.5175 115.705 54.5212C115.737 54.5231 115.762 54.5241 115.781 54.5241C115.882 54.5241 115.964 54.4844 116.026 54.4051C116.09 54.3258 116.138 54.22 116.172 54.0878C116.206 53.9556 116.231 53.8111 116.248 53.6544C116.265 53.4958 116.278 53.339 116.287 53.1841C116.299 52.9991 116.311 52.814 116.324 52.6289C116.337 52.4419 116.349 52.2606 116.361 52.085H118.324C118.324 52.2229 118.324 52.3588 118.324 52.4929C118.324 52.6251 118.324 52.763 118.324 52.9065C118.324 53.0482 118.324 53.203 118.324 53.3711V53.6544C118.324 53.8867 118.324 54.0991 118.324 54.2918C118.324 54.4844 118.324 54.6856 118.324 54.8952H117.86C117.86 54.6856 117.86 54.4844 117.86 54.2918C117.86 54.0991 117.86 53.8867 117.86 53.6544V53.3711C117.86 53.2106 117.86 53.0642 117.86 52.932C117.86 52.7979 117.86 52.6695 117.86 52.5467C117.86 52.4221 117.86 52.2927 117.86 52.1586L118.135 52.4674H116.541L116.78 52.1586C116.77 52.2852 116.761 52.4155 116.752 52.5496C116.742 52.6837 116.733 52.8178 116.723 52.9518C116.716 53.084 116.707 53.2162 116.695 53.3484C116.68 53.56 116.66 53.762 116.633 53.9547C116.609 54.1454 116.57 54.3154 116.515 54.4646C116.463 54.6138 116.386 54.7318 116.285 54.8187C116.185 54.9037 116.051 54.9462 115.882 54.9462Z" fill="black"/>
<path d="M119.205 54.8952C119.205 54.6856 119.205 54.4844 119.205 54.2918C119.205 54.0991 119.205 53.8867 119.205 53.6544V53.3711C119.205 53.203 119.205 53.0482 119.205 52.9065C119.205 52.763 119.205 52.6251 119.205 52.4929C119.205 52.3588 119.205 52.2229 119.205 52.085L119.666 52.0652C119.666 52.2672 119.666 52.4646 119.666 52.6572C119.666 52.848 119.666 53.0519 119.666 53.2691C119.666 53.4976 119.666 53.711 119.666 53.9093C119.666 54.1058 119.666 54.3088 119.666 54.5184H120.218C120.358 54.5184 120.486 54.5033 120.6 54.4731C120.716 54.4429 120.808 54.3843 120.876 54.2975C120.943 54.2087 120.977 54.0812 120.977 53.915C120.977 53.7923 120.957 53.695 120.918 53.6232C120.881 53.5496 120.83 53.4948 120.766 53.4589C120.702 53.423 120.633 53.3994 120.558 53.3881C120.483 53.3768 120.41 53.3711 120.339 53.3711H119.599L119.478 52.9943C119.592 52.9943 119.735 52.9943 119.905 52.9943C120.078 52.9943 120.239 52.9943 120.389 52.9943C120.624 52.9943 120.82 53.0274 120.977 53.0935C121.135 53.1577 121.253 53.2578 121.331 53.3938C121.41 53.5279 121.45 53.7007 121.45 53.9122C121.45 54.1029 121.414 54.2729 121.343 54.4221C121.273 54.5694 121.157 54.6856 120.994 54.7705C120.831 54.8536 120.61 54.8952 120.33 54.8952C120.107 54.8952 119.898 54.8952 119.703 54.8952C119.51 54.8952 119.344 54.8952 119.205 54.8952Z" fill="black"/>
<path d="M123.352 54.9518C123.05 54.9518 122.793 54.8876 122.581 54.7592C122.371 54.6308 122.211 54.4561 122.1 54.2351C121.99 54.0142 121.934 53.7649 121.934 53.4873C121.934 53.2096 121.987 52.9603 122.092 52.7394C122.199 52.5165 122.353 52.3409 122.556 52.2125C122.76 52.084 123.009 52.0198 123.301 52.0198C123.41 52.0198 123.517 52.0293 123.622 52.0482C123.729 52.067 123.829 52.0925 123.923 52.1246C124.017 52.1549 124.1 52.1907 124.173 52.2323L124.131 52.6629C124.026 52.6025 123.927 52.5562 123.833 52.5241C123.741 52.4901 123.655 52.4674 123.574 52.4561C123.495 52.4429 123.422 52.4363 123.355 52.4363C123.07 52.4363 122.841 52.5307 122.669 52.7195C122.496 52.9065 122.41 53.1596 122.41 53.4788C122.41 53.6789 122.447 53.8602 122.522 54.0227C122.599 54.1832 122.714 54.3107 122.865 54.4051C123.019 54.4976 123.209 54.5439 123.436 54.5439C123.517 54.5439 123.597 54.5364 123.675 54.5212C123.756 54.5061 123.836 54.4844 123.915 54.4561C123.993 54.4259 124.069 54.3872 124.142 54.3399L124.182 54.7677C124.12 54.8017 124.048 54.8329 123.965 54.8612C123.883 54.8876 123.79 54.9093 123.687 54.9263C123.585 54.9433 123.474 54.9518 123.352 54.9518Z" fill="black"/>
<path d="M125.524 54.8952C125.524 54.6856 125.524 54.4844 125.524 54.2918C125.524 54.0991 125.524 53.8867 125.524 53.6544V53.3711C125.524 53.2106 125.524 53.0642 125.524 52.932C125.524 52.7979 125.524 52.6695 125.524 52.5467C125.524 52.4221 125.524 52.2927 125.524 52.1586L125.679 52.4674H125.572C125.409 52.4674 125.241 52.4674 125.069 52.4674C124.896 52.4674 124.726 52.4674 124.559 52.4674V52.085H126.953V52.4674C126.786 52.4674 126.616 52.4674 126.444 52.4674C126.271 52.4674 126.104 52.4674 125.94 52.4674H125.834L125.988 52.1586C125.988 52.2927 125.988 52.4221 125.988 52.5467C125.988 52.6695 125.988 52.7979 125.988 52.932C125.988 53.0642 125.988 53.2106 125.988 53.3711V53.6544C125.988 53.8867 125.988 54.0991 125.988 54.2918C125.988 54.4844 125.988 54.6856 125.988 54.8952H125.524Z" fill="black"/>
<path d="M127.522 54.8952C127.522 54.6856 127.522 54.4844 127.522 54.2918C127.522 54.0973 127.522 53.8839 127.522 53.6516V53.3683C127.522 53.2002 127.522 53.0453 127.522 52.9037C127.522 52.762 127.522 52.6251 127.522 52.4929C127.522 52.3588 127.522 52.2229 127.522 52.085C127.691 52.085 127.894 52.085 128.13 52.085C128.368 52.085 128.597 52.085 128.816 52.085C129.037 52.085 129.215 52.1124 129.348 52.1671C129.481 52.2219 129.577 52.2993 129.635 52.3994C129.695 52.4976 129.725 52.6147 129.725 52.7507C129.725 52.9282 129.679 53.0708 129.587 53.1785C129.497 53.2861 129.385 53.3607 129.252 53.4023V53.4391C129.342 53.4561 129.428 53.4891 129.511 53.5382C129.595 53.5855 129.665 53.6563 129.719 53.7507C129.775 53.8432 129.803 53.9669 129.803 54.1218C129.803 54.2691 129.771 54.4013 129.705 54.5184C129.641 54.6336 129.527 54.7252 129.362 54.7932C129.199 54.8612 128.966 54.8952 128.664 54.8952C128.437 54.8952 128.226 54.8952 128.029 54.8952C127.832 54.8952 127.663 54.8952 127.522 54.8952ZM127.975 54.5184H128.625C128.805 54.5184 128.947 54.5014 129.05 54.4674C129.155 54.4334 129.228 54.3834 129.269 54.3173C129.312 54.2512 129.334 54.1709 129.334 54.0765C129.334 53.916 129.278 53.8026 129.165 53.7365C129.054 53.6704 128.892 53.6374 128.678 53.6374H127.851V53.2946H128.631C128.786 53.2946 128.909 53.2757 128.999 53.238C129.089 53.1983 129.153 53.1454 129.19 53.0793C129.23 53.0113 129.249 52.9348 129.249 52.8499C129.249 52.7063 129.203 52.6062 129.109 52.5496C129.017 52.491 128.886 52.4618 128.715 52.4618H127.975C127.975 52.6128 127.975 52.7592 127.975 52.9008C127.975 53.0425 127.975 53.1964 127.975 53.3626V53.6459C127.975 53.8064 127.975 53.9556 127.975 54.0935C127.975 54.2314 127.975 54.373 127.975 54.5184Z" fill="black"/>
<path d="M130.505 54.8952C130.505 54.6856 130.505 54.4844 130.505 54.2918C130.505 54.0991 130.505 53.8867 130.505 53.6544V53.3711C130.505 53.203 130.505 53.0482 130.505 52.9065C130.505 52.763 130.505 52.6251 130.505 52.4929C130.505 52.3588 130.505 52.2229 130.505 52.085L130.955 52.068C130.955 52.2021 130.955 52.3343 130.955 52.4646C130.955 52.5949 130.955 52.7299 130.955 52.8697C130.955 53.0076 130.955 53.1577 130.955 53.3201V54.2153H130.995L131.594 53.2833C131.723 53.0831 131.853 52.882 131.982 52.6799C132.111 52.4778 132.24 52.2795 132.367 52.085H132.848C132.848 52.2229 132.848 52.3588 132.848 52.4929C132.848 52.6251 132.848 52.763 132.848 52.9065C132.848 53.0482 132.848 53.203 132.848 53.3711V53.6544C132.848 53.8867 132.848 54.0991 132.848 54.2918C132.848 54.4844 132.848 54.6856 132.848 54.8952H132.401C132.401 54.6893 132.401 54.491 132.401 54.3003C132.401 54.1076 132.401 53.8971 132.401 53.6686V52.762H132.362L131.768 53.6827C131.637 53.8867 131.507 54.0897 131.377 54.2918C131.248 54.4939 131.119 54.695 130.989 54.8952H130.505Z" fill="black"/>
<path d="M135.032 54.9575C134.699 54.9575 134.424 54.8933 134.208 54.7649C133.993 54.6364 133.832 54.4608 133.727 54.238C133.622 54.0151 133.57 53.7602 133.57 53.4731C133.57 53.1898 133.621 52.9386 133.725 52.7195C133.828 52.5005 133.976 52.3296 134.169 52.2068C134.362 52.0822 134.593 52.0198 134.861 52.0198C135.097 52.0198 135.3 52.0661 135.468 52.1586C135.639 52.2512 135.77 52.3872 135.862 52.5666C135.954 52.7441 136 52.9641 136 53.2266C136 53.2965 135.998 53.3598 135.994 53.4164C135.993 53.4712 135.987 53.5269 135.978 53.5836L135.57 53.3768C135.573 53.3466 135.575 53.3182 135.575 53.2918C135.577 53.2635 135.578 53.2361 135.578 53.2096C135.578 52.9433 135.512 52.7413 135.381 52.6034C135.25 52.4636 135.078 52.3938 134.866 52.3938C134.696 52.3938 134.549 52.4381 134.425 52.5269C134.303 52.6138 134.208 52.7347 134.141 52.8895C134.073 53.0444 134.04 53.221 134.04 53.4193V53.4844C134.04 53.7035 134.077 53.8924 134.152 54.051C134.227 54.2096 134.34 54.3324 134.492 54.4193C134.646 54.5042 134.841 54.5467 135.077 54.5467C135.166 54.5467 135.258 54.5401 135.356 54.5269C135.455 54.5118 135.553 54.4891 135.648 54.4589C135.746 54.4287 135.839 54.389 135.927 54.3399L135.947 54.762C135.875 54.8017 135.793 54.8366 135.699 54.8669C135.605 54.8952 135.502 54.9169 135.39 54.932C135.277 54.949 135.158 54.9575 135.032 54.9575ZM133.764 53.5836V53.2493L135.693 53.2323L135.978 53.3399V53.5836H133.764Z" fill="black"/>
</svg>
